<?xml version="1.0" encoding="utf-8"?>
<!-- Generator: Adobe Illustrator 27.2.0, SVG Export Plug-In . SVG Version: 6.00 Build 0)  -->
<svg version="1.1" id="Camada_1" xmlns="http://www.w3.org/2000/svg" xmlns:xlink="http://www.w3.org/1999/xlink" x="0px" y="0px"
	 viewBox="0 0 401 150" style="enable-background:new 0 0 401 150;" xml:space="preserve">
<style type="text/css">
	.st0{fill-rule:evenodd;clip-rule:evenodd;fill:#009C81;}
	.st1{fill:#FFFFFF;}
	.st2{fill-rule:evenodd;clip-rule:evenodd;fill:#FFFFFF;}
</style>
<path class="st0" d="M65.1,21.6c0.1-0.2,1.3-1.6,2.1-1.6s1.2,1,1.2,1.6c0.2,1.3,0.5,3.1,0.9,6.1c0.7,4.4,1.6,9.4,1.6,9.4
	c-4.6,0.9-15.6,3.5-19.3,4.5C55.5,35.1,62.7,24.5,65.1,21.6C65.1,21.6,65.1,21.6,65.1,21.6z M96.4,41.1c6.9-0.3,14.2-0.4,14.8-0.4
	c1.7,0,3.2,0.2,3.5,0.9c0.3,1-0.4,2.2-1.7,3c-0.3,0.2-4.4,2.9-8.9,5.9c-6.8,4.6-15.3,10.2-15.3,10.2c0.1,0.2-3.2-14.9-3.9-18.9
	C84.9,41.9,90.6,41.4,96.4,41.1L96.4,41.1L96.4,41.1z M51.7,85.6c0,0-16.1-13.4-17-14.1c0,0,10.2-19.1,13.4-24
	c2-0.5,16.9-3.3,24-4.1c0,0,2.1,11.6,5.2,24.9C77.3,68.3,56.5,82.1,51.7,85.6L51.7,85.6L51.7,85.6z M85,97.9L85,97.9
	c-2.5-8.6-5-18.1-5-18.1L60.8,93.4c0,0,22.2,19.5,26.5,23.3c0.1,0.1,1,0.8,1.4,1c0.8,0.4,1.4,0.2,1.7-0.3c0.3-0.5,0.2-1.4,0-2.3
	C89.2,111.6,87,104.6,85,97.9L85,97.9L85,97.9z M24.2,105.3L24.2,105.3c5.5-3.7,22.5-16,22.5-16C43.8,86.8,32,76.7,32,76.7
	s-9.5,20.1-11.9,25.2c-0.1,0.2-1.1,2.4-0.9,3.6c0.2,0.6,0.7,2.1,3.2,0.9C22.7,106.3,23.9,105.5,24.2,105.3L24.2,105.3L24.2,105.3z
	 M18.9,58.9L18.9,58.9c2.4,1.9,12.1,9.6,12.1,9.6c1.4-2.4,1.3-2.6,4.7-8.4c1.4-2.5,3.5-5.8,6.6-11.2c-11.9,2.9-20.6,6-22.6,6.7
	c-0.1,0-0.8,0.3-1,0.5c-0.5,0.3-0.7,0.7-0.8,1.1C17.8,58.1,18.6,58.7,18.9,58.9L18.9,58.9L18.9,58.9z M104.9,115.4
	c-2-5.3-4.4-11.8-6.4-18.5c-3.8-12.7-7-24.9-6.9-24.9c2.5-1.6,24.5-16.6,40.4-25.7c0.2-0.1,4.9-2.8,5.4-6c0.1-0.9,0-1.8-0.3-2.6
	c-0.8-2.4-2.8-4.5-8.5-4.9c-4.4-0.3-12.2-0.8-20.8-0.3c-8.4,0.3-17.3,1.2-24,2.3c0,0-2.7-16.4-3.6-23.1c-0.1-0.4-0.5-3-1.2-4.1
	c-0.7-1.1-1.8-2.1-3.7-2.5C74.8,5,74.4,5,74,5h-0.1c-1.3,0-2.4,0.4-3.1,1c-1,0.8-2.4,2.8-2.8,3.3c-4.3,6-16.3,23.7-22.2,33.8
	c0,0-18.7,5.7-30,10.5c-3.4,1.4-3.7,3.1-3.8,4c-0.1,0.7,0,2.4,2.6,4.6c3.3,2.8,13.7,11.4,13.7,11.4c-3.7,5.8-17.8,34.7-19.2,42.7
	c-0.4,2.3-0.4,4.7,1.3,6.9c1.1,1.4,2.9,2.3,4.9,2.4c2.4,0,5.7-2.5,7.1-3.5c11.3-8.1,33.2-24.9,33.2-24.9c8.3,7.4,25.8,23.4,35,32
	c1.1,1,4.5,4.2,7.8,4.2c6.3,0.2,8.4-5.2,8.7-7.1C107.7,121.9,105.5,117.1,104.9,115.4L104.9,115.4z"/>
<g>
	<path class="st1" d="M337.6,80L337.6,80h-12.9h-0.6V36.4h14.2c2,0,3.8,0.1,5.6,0.4c1.8,0.3,3.4,0.6,4.9,1.1l0,0
		c1.5,0.5,2.9,1.1,4.2,1.8c1.3,0.7,2.5,1.6,3.5,2.5l0,0c1,1,2,2,2.8,3.1c0.8,1.1,1.5,2.4,2,3.7l0,0c0.5,1.3,0.9,2.7,1.2,4.2
		c0.3,1.5,0.4,3,0.4,4.6l0,0c0,1.7-0.2,3.2-0.5,4.7c-0.3,1.5-0.7,2.9-1.3,4.3c-0.6,1.4-1.3,2.6-2.1,3.8c-0.8,1.2-1.8,2.2-2.9,3.2
		l0,0c-1.1,1-2.3,1.8-3.6,2.6c-1.3,0.7-2.8,1.4-4.3,1.9l0,0c-1.6,0.5-3.2,0.9-5,1.2C341.4,79.8,339.6,80,337.6,80L337.6,80L337.6,80
		z M333.3,43.9v28.5h4.5c1.4,0,2.7-0.1,3.9-0.3c1.2-0.2,2.3-0.5,3.3-0.9l0,0c1-0.4,1.9-0.8,2.6-1.4c0.8-0.5,1.5-1.1,2.1-1.8l0,0
		c0.6-0.7,1.1-1.4,1.6-2.1s0.8-1.6,1.1-2.5c0.3-0.9,0.5-1.8,0.6-2.7c0.1-0.9,0.2-1.9,0.2-2.8l0,0c0-1.5-0.1-2.8-0.4-4
		c-0.3-1.2-0.7-2.4-1.3-3.4l0,0c-0.6-1-1.3-2-2.1-2.8c-0.9-0.8-1.9-1.5-3-2.1s-2.4-1-3.9-1.3c-1.5-0.3-3-0.5-4.8-0.5l0,0L333.3,43.9
		L333.3,43.9z"/>
	<polygon class="st1" points="314.1,80 306.1,80 305.5,80 305.5,79.4 305.5,37 305.5,36.4 306.1,36.4 314.1,36.4 314.7,36.4 
		314.7,37 314.7,79.4 314.7,80 	"/>
	<path class="st1" d="M293.8,71.2c0.8-0.3,1.6-0.7,2.3-1.2l0.6-0.3l0.2,0.7l2.2,6.1l0.2,0.5l-0.5,0.2c-0.8,0.4-1.6,0.8-2.5,1.2
		c-0.8,0.3-1.6,0.7-2.4,0.9l0,0c-0.8,0.2-1.6,0.5-2.4,0.6c-0.8,0.2-1.6,0.3-2.4,0.4c-0.8,0.1-1.5,0.2-2.3,0.2s-1.5,0.1-2.3,0.1
		c-1.8,0-3.5-0.1-5.2-0.4c-1.6-0.3-3.2-0.7-4.6-1.2l0,0c-1.4-0.5-2.7-1.2-3.9-1.9c-1.2-0.8-2.3-1.6-3.2-2.6c-1-1-1.8-2.1-2.5-3.2
		c-0.7-1.2-1.4-2.4-1.8-3.7c-0.5-1.3-0.9-2.7-1.1-4.2c-0.2-1.5-0.4-3-0.4-4.6l0,0c0-1.3,0.1-2.5,0.3-3.7c0.2-1.2,0.5-2.4,0.8-3.5
		l0,0c0.4-1.1,0.8-2.2,1.3-3.3c0.5-1,1.1-2,1.8-3l0,0c0.7-0.9,1.4-1.8,2.3-2.6c0.8-0.8,1.7-1.6,2.7-2.3l0,0c1-0.7,2-1.3,3.1-1.8
		c1.1-0.5,2.2-1,3.5-1.4l0,0c1.2-0.4,2.5-0.7,3.8-0.8c1.3-0.2,2.7-0.3,4.2-0.3l0,0c1.2,0,2.4,0.1,3.5,0.2l0,0
		c1.1,0.1,2.2,0.2,3.2,0.4l0,0c1,0.2,1.9,0.4,2.8,0.7s1.6,0.5,2.4,0.8l0.4,0.2v8.6l-0.9-0.5c-0.8-0.4-1.6-0.8-2.5-1.1
		c-0.9-0.3-1.8-0.6-2.7-0.9c-0.9-0.2-1.8-0.4-2.8-0.5c-1-0.1-2-0.2-3-0.2l0,0c-1.2,0-2.3,0.1-3.3,0.3c-1,0.2-2,0.5-2.9,0.9l0,0
		c-0.9,0.4-1.7,0.8-2.5,1.4c-0.7,0.5-1.4,1.1-2,1.8s-1.1,1.4-1.6,2.2c-0.4,0.8-0.8,1.6-1.1,2.5c-0.3,0.9-0.5,1.8-0.7,2.8
		c-0.1,1-0.2,1.9-0.2,3c0,1.1,0.1,2.1,0.2,3.1c0.2,1,0.4,1.9,0.7,2.8l0,0c0.3,0.9,0.7,1.7,1.2,2.5c0.5,0.8,1,1.5,1.6,2.1
		c0.6,0.6,1.3,1.2,2,1.7c0.7,0.5,1.5,0.9,2.4,1.3c0.9,0.3,1.8,0.6,2.7,0.8c1,0.2,2,0.3,3.1,0.3c1,0,2-0.1,3-0.2
		c1-0.1,1.8-0.3,2.7-0.6l0,0C292.1,71.9,292.9,71.6,293.8,71.2L293.8,71.2z"/>
	<polygon class="st1" points="253.8,80 245.8,80 245.2,80 245.2,79.4 245.2,37 245.2,36.4 245.8,36.4 253.8,36.4 254.4,36.4 
		254.4,37 254.4,79.4 254.4,80 	"/>
	<path class="st1" d="M203.6,80H195V36.4h8.8l0.2,0.2l18.7,23.1l0,0c0.5,0.7,1,1.3,1.4,1.8c0.4,0.5,0.8,1,1.3,1.7l0,0
		c0.4,0.5,0.8,1.1,1.2,1.6l0,0c0-0.5,0-1.1,0-1.7c0-1.4,0-2.5,0-3.6V36.4h9.3V80h-8.2l-0.2-0.2L208,55.7c-0.5-0.6-0.9-1.2-1.4-1.7
		c-0.4-0.6-0.9-1.1-1.3-1.7c-0.4-0.5-0.8-1.1-1.2-1.6l-0.1-0.1c0,0.4,0,0.8,0,1.2c0,1.3,0,2.4,0,3.5V80L203.6,80L203.6,80z"/>
	<path class="st1" d="M172.8,80.1c-1.8,0.3-3.6,0.5-5.7,0.5s-4-0.2-5.8-0.5s-3.4-0.9-4.8-1.6l0,0c-1.5-0.7-2.7-1.6-3.8-2.7
		s-2-2.3-2.7-3.8c-0.3-0.6-0.6-1.2-0.8-1.8c-0.2-0.7-0.4-1.3-0.5-2.1l0,0c-0.1-0.7-0.2-1.4-0.3-2.2c-0.1-0.8-0.1-1.6-0.1-2.4V36.4
		h9.2V63c0,0.5,0,1.1,0.1,1.6c0.1,0.5,0.1,1,0.2,1.4l0,0c0.1,0.5,0.2,0.9,0.4,1.3s0.3,0.8,0.5,1.1l0,0c0.4,0.7,0.8,1.3,1.3,1.9
		c0.5,0.5,1.1,1,1.8,1.4l0,0c0.7,0.4,1.5,0.7,2.4,0.9c0.9,0.2,1.9,0.3,2.9,0.3c1.1,0,2-0.1,2.9-0.3c0.9-0.2,1.7-0.5,2.4-0.9l0,0
		c0.7-0.4,1.3-0.8,1.8-1.4s1-1.2,1.3-1.9l0,0c0.4-0.7,0.7-1.5,0.8-2.4c0.2-0.9,0.3-1.9,0.3-3.1V36.4h9.2v27.1c0,0.8,0,1.6-0.1,2.4
		l0,0c-0.1,0.8-0.2,1.5-0.3,2.2l0,0c-0.1,0.7-0.3,1.4-0.5,2.1c-0.2,0.7-0.5,1.3-0.8,1.8c-0.7,1.4-1.6,2.7-2.7,3.7
		c-1.1,1.1-2.4,1.9-3.8,2.7l0,0C176.2,79.2,174.6,79.7,172.8,80.1L172.8,80.1z"/>
	<path class="st2" d="M163.1,110.7c-1.4,1.4-3.5,2.3-6.5,2.3c-2.9,0-4.8-0.8-6.1-2c-1.7-1.7-2.1-4.1-2.1-6.3v-14h2.9v13.9
		c0,1.5,0.4,3.2,1.5,4.3c0.8,0.9,2.1,1.4,3.9,1.4c2,0,3.4-0.5,4.2-1.4c0.9-1,1.3-2.5,1.3-4.1V90.7h3V105
		C165.2,107.2,164.5,109.3,163.1,110.7L163.1,110.7z"/>
	<path class="st2" d="M179,112.6v-9.5c0-1.8-0.3-3.9-2.6-3.9c-1.7,0-3.4,1.1-4.6,2.2v11.2h-2.9V96.9h2.5l0.4,1.8
		c1.8-1.3,3.4-2.2,5.6-2.2s4.6,1.6,4.6,5.6v10.5H179L179,112.6z"/>
	<path class="st2" d="M185.4,112.6V96.9h2.9v15.7H185.4z M188.8,92c0,1.1-0.9,2-2,2s-2-0.9-2-2c0-1,0.9-1.9,2-1.9
		S188.8,90.9,188.8,92z"/>
	<polygon class="st2" points="199,112.7 196.7,112.7 190.6,96.9 193.6,96.9 197.9,108.9 198,108.9 202.6,96.9 205.5,96.9 	"/>
	<path class="st2" d="M212.8,98.9c-2.2,0-3.6,1.9-3.6,4.2h7C216.2,101.1,215.1,98.9,212.8,98.9L212.8,98.9L212.8,98.9z M209.2,105.4
		c0,2.8,1.8,5.1,5,5.1c1.4,0,2.8-0.5,3.8-1.1l0.8,2c-1.4,1-3.4,1.6-5.2,1.6c-5.1,0-7.5-4-7.5-8.4s2.6-8,6.6-8s6.5,3.2,6.5,8.1v0.8
		L209.2,105.4L209.2,105.4z"/>
	<path class="st2" d="M230.2,99.8c-0.4-0.2-1-0.4-1.6-0.4c-0.9,0-2.3,0.7-3.3,1.7v11.5h-3V96.9h2.5l0.4,1.8c2-1.8,3.2-2.2,4.4-2.2
		c0.7,0,1.4,0.3,1.8,0.5L230.2,99.8z"/>
	<path class="st2" d="M236.6,113c-2.4,0-3.9-0.6-5.1-1.3l1.1-2.2c0.9,0.6,2.3,1.2,4,1.2c1.8,0,3.1-0.8,3.1-2.1
		c0-3.5-7.2-2.2-7.2-7.7c0-2.4,1.8-4.3,5.5-4.3c1.8,0,3.1,0.4,4.1,0.8v2.5c-1.2-0.5-2.4-1-4.1-1c-1.5,0-2.7,0.5-2.7,1.8
		c0,3.2,7.3,2.3,7.3,7.5C242.7,111.6,239.9,113,236.6,113z"/>
	<path class="st2" d="M245.6,112.6V96.9h2.9v15.7H245.6z M249.1,92c0,1.1-0.9,2-2,2s-2-0.9-2-2c0-1,0.9-1.9,2-1.9
		S249.1,90.9,249.1,92z"/>
	<path class="st2" d="M262.3,99.3c-0.6-0.2-1.1-0.3-2.2-0.3c-3,0-5.5,2.2-5.5,5.8c0,3.3,1.9,5.7,5.7,5.7c0.7,0,1.6-0.2,2-0.4V99.3
		C262.3,99.3,262.3,99.3,262.3,99.3z M259.9,113c-4.5,0-8.2-2.6-8.2-8c0-4.9,3.6-8.4,8.3-8.4c1,0,1.8,0.1,2.4,0.2v-7.6h3v22.7
		C264.1,112.4,262.2,113,259.9,113L259.9,113z"/>
	<path class="st2" d="M277.5,105.2l-2.9,0.1c-2.6,0.1-3.6,1-3.6,2.6c0,1.5,1,2.7,2.9,2.7c1.8,0,3-0.9,3.6-1.5L277.5,105.2
		L277.5,105.2L277.5,105.2z M278.3,112.6l-0.6-1.5c-1,0.9-2.5,1.8-4.8,1.8c-2.7,0-4.9-1.9-4.9-4.9s2.3-5,6.4-5.2l3.1-0.1v-0.6
		c0-2.4-1.4-3.3-3.3-3.3s-3.2,0.7-4.1,1.4l-1.1-2c2-1.4,3.7-1.8,5.8-1.8c3.3,0,5.7,1.4,5.7,5.4v5.3c0,3.7,0.1,4.8,0.3,5.4H278.3z"/>
	<path class="st2" d="M293.9,99.3c-0.6-0.2-1.1-0.3-2.2-0.3c-3,0-5.5,2.2-5.5,5.8c0,3.3,1.9,5.7,5.7,5.7c0.7,0,1.6-0.2,2-0.4
		L293.9,99.3L293.9,99.3L293.9,99.3z M291.4,113c-4.5,0-8.2-2.6-8.2-8c0-4.9,3.6-8.4,8.3-8.4c1,0,1.8,0.1,2.4,0.2v-7.6h3v22.7
		C295.7,112.4,293.8,113,291.4,113L291.4,113z"/>
	<path class="st2" d="M306.2,98.9c-2.2,0-3.5,1.9-3.5,4.2h7C309.6,101.1,308.5,98.9,306.2,98.9L306.2,98.9L306.2,98.9z M302.7,105.4
		c0,2.8,1.8,5.1,5,5.1c1.4,0,2.8-0.5,3.8-1.1l0.8,2c-1.4,1-3.4,1.6-5.2,1.6c-5.1,0-7.5-4-7.5-8.4s2.6-8,6.6-8s6.5,3.2,6.5,8.1v0.8
		C312.7,105.4,302.7,105.4,302.7,105.4z"/>
	<path class="st2" d="M158.6,145c-6.6,0-10.7-4.7-10.7-11s4.5-11.4,11.2-11.4c2.5,0,4.5,0.6,5.6,1.3l0,2.9c-1.7-1-3.3-1.6-5.6-1.6
		c-4.9,0-8,3.8-8,8.6s3,8.6,7.9,8.6c1.9,0,3.7-0.6,5.2-1.4l0.9,2.3C162.9,144.5,160.7,145,158.6,145L158.6,145z"/>
	<path class="st2" d="M228.9,130.9c-2.2,0-3.5,1.9-3.5,4.2h7C232.3,133.1,231.2,130.9,228.9,130.9L228.9,130.9L228.9,130.9z
		 M225.4,137.4c0,2.8,1.8,5.1,4.9,5.1c1.4,0,2.8-0.5,3.8-1.1l0.8,2c-1.4,1-3.4,1.6-5.2,1.6c-5.1,0-7.5-4-7.5-8.4s2.6-8,6.6-8
		s6.5,3.2,6.5,8.1v0.8L225.4,137.4L225.4,137.4z"/>
	<path class="st2" d="M171.4,124c0,1.1-0.9,2-2,2s-2-0.9-2-2c0-1,0.9-1.9,2-1.9S171.4,122.9,171.4,124z"/>
	<rect x="168" y="128.9" class="st1" width="2.9" height="15.7"/>
	<path class="st2" d="M184.4,131.4c-0.6-0.2-1.1-0.3-2.2-0.3c-3,0-5.5,2.2-5.5,5.8c0,3.3,1.9,5.7,5.7,5.7c0.7,0,1.6-0.2,2-0.4V131.4
		L184.4,131.4z M182,145c-4.5,0-8.2-2.6-8.2-8c0-4.9,3.6-8.4,8.3-8.4c1,0,1.8,0.1,2.4,0.2v-7.6h2.9v22.6
		C186.2,144.5,184.4,145,182,145L182,145z"/>
	<path class="st2" d="M355.7,144.6l-0.6-1.6c-1.2,1-2.9,1.9-5,1.9s-4.9-1.1-4.9-5.7V129h3V139c0,2.4,1,3.5,2.9,3.5
		c1.8,0,3.1-1.1,3.8-1.8V129h2.9v9.8c0,4.1,0.1,5.1,0.3,5.8L355.7,144.6L355.7,144.6z"/>
	<path class="st2" d="M339.1,137.2l-2.8,0.1c-2.6,0.1-3.6,0.9-3.6,2.5c0,1.5,1,2.7,2.9,2.7s3-0.9,3.6-1.5L339.1,137.2L339.1,137.2
		L339.1,137.2z M339.9,144.7l-0.6-1.5c-1,0.9-2.5,1.8-4.7,1.8c-2.6,0-4.9-1.9-4.9-4.9s2.3-5,6.4-5.1l3-0.1v-0.6
		c0-2.4-1.4-3.3-3.2-3.3s-3.2,0.7-4.1,1.4l-1.1-2c2-1.4,3.7-1.8,5.7-1.8c3.3,0,5.6,1.4,5.6,5.4v5.3c0,3.7,0.1,4.8,0.3,5.4
		L339.9,144.7L339.9,144.7z"/>
	<path class="st2" d="M371.7,136.8c0,3.5,1.6,5.8,4.4,5.8s4.3-2.4,4.3-5.8s-1.6-5.8-4.4-5.8S371.7,133.3,371.7,136.8L371.7,136.8z
		 M381.3,130.7c1.4,1.4,2.1,3.6,2.1,6.1s-0.8,4.7-2.2,6.1c-1.3,1.3-3.1,2.1-5.2,2.1s-3.8-0.7-5.1-1.9c-1.5-1.4-2.2-3.7-2.2-6.2
		s0.8-4.7,2.2-6.2c1.3-1.3,3-2.1,5.1-2.1S380,129.3,381.3,130.7L381.3,130.7z"/>
	<path class="st2" d="M199.6,137.2l-2.8,0.1c-2.6,0.1-3.6,0.9-3.6,2.5c0,1.5,1,2.7,2.9,2.7c1.8,0,2.9-0.9,3.6-1.5L199.6,137.2
		L199.6,137.2L199.6,137.2z M200.4,144.6l-0.6-1.5c-1,0.9-2.5,1.8-4.7,1.8c-2.6,0-4.9-1.9-4.9-4.9s2.3-5,6.4-5.1l3-0.1v-0.6
		c0-2.4-1.4-3.3-3.2-3.3s-3.2,0.7-4.1,1.4l-1.1-2c2-1.4,3.7-1.8,5.7-1.8c3.3,0,5.6,1.4,5.6,5.4v5.3c0,3.7,0.1,4.8,0.3,5.4
		L200.4,144.6L200.4,144.6z"/>
	<path class="st2" d="M363.5,145c-2.1,0-3-1.3-3-3.1v-20.7h2.9v19.4c0,1.4,0.3,1.7,1.2,1.7c0.2,0,0.5,0,0.9-0.1l0.4,2.1
		C365.1,144.8,364.3,145,363.5,145L363.5,145z"/>
	<path class="st2" d="M216.2,131.4c-0.6-0.2-1.1-0.3-2.2-0.3c-3,0-5.5,2.2-5.5,5.8c0,3.3,1.9,5.7,5.7,5.7c0.7,0,1.6-0.2,2-0.4V131.4
		L216.2,131.4L216.2,131.4z M213.8,145c-4.5,0-8.2-2.6-8.2-8c0-4.9,3.6-8.4,8.3-8.4c1,0,1.8,0.1,2.4,0.2v-7.6h2.9v22.6
		C218,144.4,216.1,145,213.8,145L213.8,145z"/>
	<path class="st2" d="M268.2,130.9c-2.2,0-3.5,1.9-3.5,4.2h7C271.7,133.1,270.5,130.9,268.2,130.9L268.2,130.9L268.2,130.9z
		 M264.7,137.4c0,2.8,1.8,5.1,5,5.1c1.4,0,2.8-0.5,3.8-1.1l0.8,2c-1.4,1-3.4,1.6-5.2,1.6c-5.1,0-7.5-4-7.5-8.4s2.6-8,6.6-8
		s6.5,3.2,6.5,8.1v0.8L264.7,137.4L264.7,137.4z"/>
	<path class="st2" d="M255.5,131.4c-0.6-0.2-1.1-0.3-2.2-0.3c-3,0-5.5,2.2-5.5,5.8c0,3.3,1.9,5.7,5.7,5.7c0.7,0,1.6-0.2,2-0.4V131.4
		L255.5,131.4L255.5,131.4z M253.1,145c-4.5,0-8.2-2.6-8.2-8c0-4.9,3.6-8.4,8.3-8.4c1,0,1.8,0.1,2.4,0.2v-7.6h3v22.6
		C257.3,144.4,255.4,145,253.1,145L253.1,145z"/>
	<path class="st2" d="M317.4,134.4h1.4c3,0,5.7-0.8,5.7-4.3c0-3.3-2.1-4.6-5.9-4.6h-1.2L317.4,134.4L317.4,134.4L317.4,134.4z
		 M319,122.9c4.5,0,8.4,1.7,8.4,7c0,4.9-3.8,7.1-8.5,7.1l-1.5,0v7.6h-3v-21.8L319,122.9L319,122.9z"/>
	<path class="st1" d="M285.4,143.8c-0.3-0.1-0.5-0.3-0.7-0.4l-0.2-0.1l0.1-0.2l1-1.9l0.1-0.3l0.2,0.2c0.2,0.1,0.4,0.2,0.5,0.3
		c0.2,0.1,0.4,0.2,0.6,0.3l0,0c0.2,0.1,0.5,0.2,0.7,0.3c0.3,0.1,0.5,0.2,0.8,0.2l0,0c0.3,0.1,0.6,0.1,0.9,0.1c0.3,0,0.6,0.1,0.9,0.1
		l0,0c0.3,0,0.6,0,0.8,0s0.5-0.1,0.8-0.1l0,0c0.2-0.1,0.5-0.1,0.7-0.2s0.4-0.2,0.6-0.3l0,0c0.2-0.1,0.3-0.3,0.5-0.4
		c0.1-0.2,0.3-0.3,0.4-0.6l0,0c0.1-0.2,0.2-0.4,0.2-0.7c0-0.2,0.1-0.5,0.1-0.8c0-0.3,0-0.6-0.1-0.8s-0.2-0.5-0.3-0.7l0,0
		c-0.1-0.2-0.3-0.4-0.4-0.6c-0.2-0.2-0.4-0.4-0.6-0.6l0,0c-0.2-0.2-0.4-0.4-0.7-0.5c-0.2-0.2-0.5-0.3-0.8-0.5
		c-0.3-0.2-0.6-0.3-0.9-0.5s-0.6-0.3-0.9-0.5l0,0c-0.3-0.2-0.6-0.3-0.9-0.5s-0.6-0.4-0.9-0.5c-0.3-0.2-0.6-0.4-0.8-0.6
		c-0.3-0.2-0.5-0.4-0.8-0.7c-0.2-0.2-0.5-0.5-0.6-0.8s-0.4-0.6-0.5-0.9c-0.1-0.3-0.2-0.7-0.3-1s-0.1-0.8-0.1-1.2l0,0
		c0-0.4,0-0.8,0.1-1.2l0,0c0.1-0.4,0.2-0.7,0.3-1.1c0.1-0.3,0.3-0.7,0.5-1c0.2-0.3,0.5-0.6,0.8-0.8c0.3-0.3,0.6-0.5,1-0.7
		c0.3-0.2,0.7-0.4,1.1-0.5c0.4-0.1,0.8-0.3,1.3-0.3c0.5-0.1,1-0.1,1.5-0.1l0,0c0.3,0,0.7,0,1,0c0.3,0,0.6,0.1,0.9,0.1l0,0
		c0.3,0.1,0.6,0.1,0.9,0.2c0.3,0.1,0.5,0.1,0.8,0.2c0.2,0.1,0.5,0.2,0.7,0.2c0.2,0.1,0.4,0.2,0.6,0.3l0.1,0.1v2.9l-0.4-0.2
		c-0.3-0.2-0.7-0.3-1-0.5c-0.4-0.1-0.7-0.3-1.1-0.3l0,0c-0.4-0.1-0.8-0.2-1.2-0.2c-0.4-0.1-0.8-0.1-1.2-0.1c-0.2,0-0.5,0-0.7,0l0,0
		c-0.2,0-0.5,0.1-0.7,0.1l0,0c-0.2,0.1-0.4,0.1-0.6,0.2c-0.2,0.1-0.4,0.2-0.5,0.3l0,0c-0.2,0.1-0.3,0.2-0.5,0.4
		c-0.1,0.1-0.2,0.3-0.4,0.5s-0.2,0.4-0.2,0.6s-0.1,0.5-0.1,0.7c0,0.3,0,0.5,0.1,0.8l0,0c0.1,0.2,0.1,0.5,0.3,0.7l0,0
		c0.1,0.2,0.3,0.4,0.4,0.6c0.2,0.2,0.4,0.4,0.6,0.6c0.2,0.2,0.5,0.4,0.7,0.5c0.2,0.2,0.5,0.3,0.8,0.5l0,0c0.3,0.2,0.6,0.3,0.9,0.5
		c0.3,0.2,0.6,0.3,0.9,0.5c0.3,0.2,0.6,0.3,0.9,0.5c0.3,0.2,0.6,0.4,0.9,0.6c0.3,0.2,0.6,0.4,0.8,0.6l0,0c0.3,0.2,0.5,0.5,0.7,0.7
		c0.2,0.2,0.5,0.5,0.6,0.8c0.2,0.3,0.4,0.6,0.5,0.9l0,0c0.1,0.3,0.2,0.7,0.3,1.1c0.1,0.4,0.1,0.8,0.1,1.2l0,0c0,0.6-0.1,1.2-0.2,1.8
		c-0.1,0.5-0.4,1-0.7,1.5c-0.3,0.4-0.7,0.9-1.1,1.2c-0.4,0.3-0.9,0.6-1.4,0.9s-1.1,0.4-1.7,0.5l0,0c-0.6,0.1-1.3,0.2-2,0.2l0,0
		c-0.4,0-0.8,0-1.2-0.1c-0.4,0-0.8-0.1-1.1-0.2c-0.4-0.1-0.7-0.2-1-0.3c-0.3-0.1-0.6-0.2-0.9-0.3C285.9,144,285.7,143.9,285.4,143.8
		L285.4,143.8z"/>
	<path class="st2" d="M305,143c0,1.1-0.9,2-2,2s-2-0.9-2-2c0-1,0.9-1.9,2-1.9S305,142,305,143z"/>
</g>
</svg>
